<?xml version="1.0" encoding="UTF-8"?><svg xmlns="http://www.w3.org/2000/svg" xmlns:xlink="http://www.w3.org/1999/xlink" contentScriptType="text/ecmascript" width="283.5pt" zoomAndPan="magnify" contentStyleType="text/css" viewBox="0 0 283.5 84.749997" height="84.749997pt" preserveAspectRatio="xMidYMid meet" version="1.2"><defs><g/><clipPath xml:id="clip1" id="clip1"><path d="M 46 26 L 79.851562 26 L 79.851562 59.796875 L 46 59.796875 Z M 46 26 "/></clipPath></defs><g xml:id="surface1" id="surface1"><path style=" stroke:none;fill-rule:nonzero;fill:rgb(0%,100%,78.819275%);fill-opacity:1;" d="M 62.753906 12.792969 C 61.773438 12.792969 60.796875 12.839844 59.820312 12.9375 C 58.847656 13.03125 57.878906 13.175781 56.917969 13.367188 C 55.957031 13.558594 55.007812 13.796875 54.070312 14.082031 C 53.132812 14.363281 52.214844 14.695312 51.308594 15.070312 C 50.402344 15.445312 49.519531 15.863281 48.65625 16.324219 C 47.792969 16.785156 46.953125 17.289062 46.136719 17.832031 C 45.324219 18.375 44.539062 18.960938 43.78125 19.582031 C 43.023438 20.203125 42.300781 20.859375 41.605469 21.550781 C 40.914062 22.242188 40.257812 22.96875 39.636719 23.726562 C 39.015625 24.484375 38.433594 25.269531 37.886719 26.082031 C 37.34375 26.898438 36.839844 27.734375 36.378906 28.601562 C 35.917969 29.464844 35.5 30.347656 35.125 31.253906 C 34.75 32.15625 34.421875 33.078125 34.136719 34.015625 C 33.851562 34.953125 33.613281 35.902344 33.421875 36.863281 C 33.230469 37.824219 33.089844 38.789062 32.992188 39.765625 C 32.894531 40.738281 32.847656 41.71875 32.847656 42.695312 C 32.847656 43.675781 32.894531 44.652344 32.992188 45.628906 C 33.089844 46.601562 33.230469 47.570312 33.421875 48.53125 C 33.613281 49.492188 33.851562 50.441406 34.136719 51.378906 C 34.421875 52.316406 34.75 53.234375 35.125 54.140625 C 35.5 55.046875 35.917969 55.929688 36.378906 56.792969 C 36.839844 57.65625 37.34375 58.496094 37.886719 59.308594 C 38.433594 60.125 39.015625 60.910156 39.636719 61.667969 C 40.257812 62.425781 40.914062 63.148438 41.605469 63.84375 C 42.300781 64.535156 43.023438 65.191406 43.78125 65.8125 C 44.539062 66.433594 45.324219 67.015625 46.136719 67.5625 C 46.953125 68.105469 47.792969 68.609375 48.65625 69.070312 C 49.519531 69.53125 50.402344 69.949219 51.308594 70.324219 C 52.214844 70.699219 53.132812 71.027344 54.070312 71.3125 C 55.007812 71.597656 55.957031 71.835938 56.917969 72.027344 C 57.878906 72.21875 58.847656 72.359375 59.820312 72.457031 C 60.796875 72.550781 61.773438 72.601562 62.753906 72.601562 C 63.730469 72.601562 64.707031 72.550781 65.683594 72.457031 C 66.65625 72.359375 67.625 72.21875 68.585938 72.027344 C 69.546875 71.835938 70.496094 71.597656 71.433594 71.3125 C 72.371094 71.027344 73.292969 70.699219 74.195312 70.324219 C 75.101562 69.949219 75.984375 69.53125 76.847656 69.070312 C 77.710938 68.609375 78.550781 68.105469 79.367188 67.5625 C 80.179688 67.015625 80.964844 66.433594 81.722656 65.8125 C 82.480469 65.191406 83.203125 64.535156 83.898438 63.84375 C 84.589844 63.148438 85.246094 62.425781 85.867188 61.667969 C 86.488281 60.910156 87.070312 60.125 87.617188 59.308594 C 88.160156 58.496094 88.664062 57.65625 89.125 56.792969 C 89.585938 55.929688 90.003906 55.046875 90.378906 54.140625 C 90.753906 53.234375 91.085938 52.316406 91.367188 51.378906 C 91.652344 50.441406 91.890625 49.492188 92.082031 48.53125 C 92.273438 47.570312 92.417969 46.601562 92.511719 45.628906 C 92.609375 44.652344 92.65625 43.675781 92.65625 42.695312 C 92.65625 41.71875 92.609375 40.738281 92.511719 39.765625 C 92.417969 38.789062 92.273438 37.824219 92.082031 36.863281 C 91.890625 35.902344 91.652344 34.953125 91.367188 34.015625 C 91.085938 33.078125 90.753906 32.15625 90.378906 31.253906 C 90.003906 30.347656 89.585938 29.464844 89.125 28.601562 C 88.664062 27.734375 88.160156 26.898438 87.617188 26.082031 C 87.070312 25.269531 86.488281 24.484375 85.867188 23.726562 C 85.246094 22.96875 84.589844 22.242188 83.898438 21.550781 C 83.203125 20.859375 82.480469 20.203125 81.722656 19.582031 C 80.964844 18.960938 80.179688 18.375 79.367188 17.832031 C 78.550781 17.289062 77.710938 16.785156 76.847656 16.324219 C 75.984375 15.863281 75.101562 15.445312 74.195312 15.070312 C 73.292969 14.695312 72.371094 14.363281 71.433594 14.082031 C 70.496094 13.796875 69.546875 13.558594 68.585938 13.367188 C 67.625 13.175781 66.65625 13.03125 65.683594 12.9375 C 64.707031 12.839844 63.730469 12.792969 62.753906 12.792969 Z M 62.753906 12.792969 "/><g clip-rule="nonzero" clip-path="url(#clip1)"><path style=" stroke:none;fill-rule:nonzero;fill:rgb(0%,0%,0%);fill-opacity:1;" d="M 78.574219 27.410156 C 76.871094 25.707031 72.292969 28.34375 68.707031 30.902344 C 66.9375 30.050781 64.964844 29.566406 62.871094 29.566406 C 55.378906 29.566406 49.285156 35.660156 49.285156 43.152344 C 49.285156 45.242188 49.769531 47.21875 50.621094 48.988281 C 48.046875 52.597656 45.425781 57.15625 47.125 58.859375 C 47.511719 59.242188 48.042969 59.4375 48.722656 59.4375 C 50.132812 59.4375 52.175781 58.597656 54.820312 56.925781 C 55.539062 56.46875 56.292969 55.949219 57.0625 55.398438 C 58.824219 56.246094 60.789062 56.738281 62.871094 56.738281 C 70.363281 56.738281 76.460938 50.644531 76.460938 43.152344 C 76.460938 41.066406 75.964844 39.105469 75.121094 37.339844 C 75.671875 36.574219 76.1875 35.820312 76.640625 35.101562 C 79.117188 31.191406 79.765625 28.601562 78.574219 27.410156 Z M 74.40625 36 C 73.644531 37.085938 72.765625 38.246094 71.773438 39.46875 C 71.757812 39.484375 71.746094 39.5 71.730469 39.519531 C 71.441406 39.875 71.140625 40.234375 70.832031 40.597656 C 70.738281 40.710938 70.640625 40.824219 70.546875 40.9375 C 70.28125 41.246094 70.011719 41.554688 69.734375 41.871094 C 69.566406 42.0625 69.394531 42.253906 69.21875 42.445312 C 68.988281 42.703125 68.757812 42.960938 68.519531 43.21875 C 68.261719 43.5 67.992188 43.785156 67.726562 44.070312 C 67.550781 44.253906 67.378906 44.4375 67.199219 44.625 C 66.738281 45.105469 66.269531 45.585938 65.789062 46.070312 C 65.308594 46.546875 64.828125 47.015625 64.34375 47.480469 C 64.152344 47.664062 63.964844 47.835938 63.773438 48.019531 C 63.496094 48.28125 63.21875 48.542969 62.9375 48.796875 C 62.679688 49.039062 62.421875 49.265625 62.164062 49.5 C 61.972656 49.671875 61.777344 49.847656 61.585938 50.015625 C 61.277344 50.289062 60.972656 50.550781 60.671875 50.8125 C 60.546875 50.917969 60.421875 51.019531 60.300781 51.125 C 59.949219 51.421875 59.601562 51.714844 59.257812 51.992188 C 59.21875 52.023438 59.179688 52.054688 59.140625 52.089844 C 57.953125 53.054688 56.820312 53.910156 55.761719 54.652344 C 55.191406 55.054688 54.632812 55.433594 54.089844 55.777344 C 50.15625 58.261719 48.464844 58.28125 48.082031 57.898438 C 47.59375 57.40625 48.125 54.976562 51.351562 50.320312 C 52.203125 51.679688 53.28125 52.882812 54.539062 53.863281 C 57.257812 52 60.769531 49.164062 64.824219 45.109375 C 68.882812 41.050781 71.714844 37.535156 73.578125 34.816406 C 72.597656 33.558594 71.394531 32.484375 70.039062 31.636719 C 74.695312 28.410156 77.125 27.886719 77.609375 28.371094 C 77.992188 28.753906 77.976562 30.449219 75.492188 34.375 C 75.164062 34.902344 74.792969 35.449219 74.40625 36 Z M 74.40625 36 "/></g><g style="fill:rgb(100%,100%,100%);fill-opacity:1;"><g transform="translate(102.502794, 56.180671)"><path style="stroke:none;" d="M 3.65625 0 L 10.972656 0 L 10.972656 -34.136719 L 3.65625 -34.136719 Z M 3.65625 0 "/></g></g><g style="fill:rgb(100%,100%,100%);fill-opacity:1;"><g transform="translate(117.131562, 56.180671)"><path style="stroke:none;" d="M 2.878906 0 L 9.65625 0 L 9.65625 -15.265625 C 10.679688 -16.679688 12.484375 -18.191406 14.875 -18.191406 C 17.457031 -18.191406 19.410156 -16.726562 19.410156 -13.605469 L 19.410156 0 L 26.1875 0 L 26.1875 -14.484375 C 26.1875 -19.898438 22.824219 -24.089844 16.679688 -24.089844 C 13.3125 -24.089844 10.679688 -22.53125 8.875 -20.433594 L 8.875 -23.410156 L 2.878906 -23.410156 Z M 2.878906 0 "/></g></g><g style="fill:rgb(100%,100%,100%);fill-opacity:1;"><g transform="translate(145.901481, 56.180671)"><path style="stroke:none;" d="M 14.335938 0.683594 C 17.3125 0.683594 19.945312 0.0976562 22.238281 -0.878906 L 22.238281 -6.875 C 20.53125 -5.851562 18.09375 -5.21875 15.652344 -5.21875 C 11.996094 -5.21875 8.484375 -7.21875 8.484375 -11.703125 C 8.484375 -16.433594 12.09375 -18.238281 15.75 -18.238281 C 17.996094 -18.238281 20.335938 -17.554688 21.992188 -16.484375 L 21.992188 -22.433594 C 19.898438 -23.554688 17.359375 -24.140625 14.777344 -24.140625 C 8.289062 -24.140625 1.5625 -20.335938 1.5625 -11.363281 C 1.5625 -3.023438 7.949219 0.683594 14.335938 0.683594 Z M 14.335938 0.683594 "/></g></g><g style="fill:rgb(100%,100%,100%);fill-opacity:1;"><g transform="translate(169.843899, 56.180671)"><path style="stroke:none;" d="M 15.117188 0.683594 C 18.628906 0.683594 21.507812 0.144531 23.699219 -0.78125 L 23.699219 -6.097656 C 21.703125 -5.265625 19.3125 -4.730469 16.628906 -4.730469 C 12.777344 -4.730469 9.167969 -6.097656 8.386719 -9.507812 L 24.871094 -9.507812 C 26.433594 -16.433594 23.3125 -24.089844 13.605469 -24.089844 C 8.339844 -24.089844 1.5625 -20.53125 1.5625 -11.703125 C 1.5625 -3.558594 7.707031 0.683594 15.117188 0.683594 Z M 8.339844 -13.898438 C 8.4375 -17.117188 10.972656 -18.921875 13.851562 -18.921875 C 18.042969 -18.921875 18.96875 -15.507812 18.679688 -13.898438 Z M 8.339844 -13.898438 "/></g></g><g style="fill:rgb(100%,100%,100%);fill-opacity:1;"><g transform="translate(196.565783, 56.180671)"><path style="stroke:none;" d="M 2.878906 10.730469 L 9.65625 10.730469 L 9.65625 -2.4375 C 11.167969 -0.828125 13.65625 0.683594 17.359375 0.683594 C 24.773438 0.683594 28.773438 -5.316406 28.773438 -11.703125 C 28.773438 -18.09375 24.773438 -24.089844 17.359375 -24.089844 C 13.070312 -24.089844 10.386719 -22.089844 8.875 -19.996094 L 8.875 -23.410156 L 2.878906 -23.410156 Z M 15.703125 -5.023438 C 12.777344 -5.023438 10.582031 -6.925781 9.65625 -8.925781 L 9.65625 -14.484375 C 10.582031 -16.484375 12.777344 -18.386719 15.703125 -18.386719 C 19.605469 -18.386719 21.847656 -15.363281 21.847656 -11.703125 C 21.847656 -8.046875 19.605469 -5.023438 15.703125 -5.023438 Z M 15.703125 -5.023438 "/></g></g><g style="fill:rgb(100%,100%,100%);fill-opacity:1;"><g transform="translate(226.944862, 56.180671)"><path style="stroke:none;" d="M 13.070312 0.683594 C 15.410156 0.683594 17.554688 0.292969 19.359375 -0.339844 L 19.359375 -5.804688 C 17.996094 -5.316406 16.679688 -5.070312 15.117188 -5.070312 C 12.582031 -5.070312 11.410156 -6.097656 11.410156 -8.535156 L 11.410156 -17.703125 L 18.777344 -17.703125 L 18.777344 -23.410156 L 11.410156 -23.410156 L 11.410156 -31.84375 L 4.632812 -30.234375 L 4.632812 -23.410156 L 0.683594 -23.410156 L 0.683594 -17.703125 L 4.632812 -17.703125 L 4.632812 -7.21875 C 4.632812 -1.414062 8.535156 0.683594 13.070312 0.683594 Z M 13.070312 0.683594 "/></g></g></g></svg>